<mxfile host="www.draw.io" modified="2020-02-17T06:33:54.411Z" agent="Mozilla/5.0 (Macintosh; Intel Mac OS X 10_14_6) AppleWebKit/537.36 (KHTML, like Gecko) Chrome/79.0.3945.130 Safari/537.36" etag="cNcQCsTWfAgMZFIsUGxq" version="12.7.0" type="github">
  <diagram id="88j6w0D9r9gqqR4eN1nP" name="第 1 页">
    <mxGraphModel dx="1136" dy="591" grid="1" gridSize="10" guides="1" tooltips="1" connect="1" arrows="1" fold="1" page="1" pageScale="1" pageWidth="850" pageHeight="1100" math="0" shadow="0">
      <root>
        <mxCell id="0"/>
        <mxCell id="1" parent="0"/>
        <mxCell id="CbaBmDf87kF8CM8pXv9o-1" value="newInstance()" style="rounded=1;whiteSpace=wrap;html=1;align=center;" parent="1" vertex="1">
          <mxGeometry x="200" y="270" width="120" height="60" as="geometry"/>
        </mxCell>
        <mxCell id="CbaBmDf87kF8CM8pXv9o-2" value="&lt;font color=&quot;#333333&quot;&gt;field.get(null);&lt;br&gt;field.get(instance);&lt;br&gt;field.set(instance);&lt;br&gt;method.invoke(instance);&lt;br&gt;&lt;/font&gt;" style="rounded=1;whiteSpace=wrap;html=1;" parent="1" vertex="1">
          <mxGeometry x="550" y="270" width="170" height="60" as="geometry"/>
        </mxCell>
        <mxCell id="CbaBmDf87kF8CM8pXv9o-3" value="Class" style="text;html=1;strokeColor=none;fillColor=none;align=center;verticalAlign=middle;whiteSpace=wrap;rounded=0;" parent="1" vertex="1">
          <mxGeometry x="240" y="230" width="40" height="20" as="geometry"/>
        </mxCell>
        <mxCell id="CbaBmDf87kF8CM8pXv9o-4" value="执行" style="text;html=1;strokeColor=none;fillColor=none;align=center;verticalAlign=middle;whiteSpace=wrap;rounded=0;" parent="1" vertex="1">
          <mxGeometry x="615" y="230" width="40" height="20" as="geometry"/>
        </mxCell>
        <mxCell id="CbaBmDf87kF8CM8pXv9o-5" value="" style="endArrow=classic;html=1;" parent="1" edge="1">
          <mxGeometry width="50" height="50" relative="1" as="geometry">
            <mxPoint x="330" y="270" as="sourcePoint"/>
            <mxPoint x="540" y="270" as="targetPoint"/>
          </mxGeometry>
        </mxCell>
        <mxCell id="CbaBmDf87kF8CM8pXv9o-6" value="获取" style="text;html=1;strokeColor=none;fillColor=none;align=center;verticalAlign=middle;whiteSpace=wrap;rounded=0;" parent="1" vertex="1">
          <mxGeometry x="400" y="230" width="40" height="20" as="geometry"/>
        </mxCell>
        <mxCell id="CbaBmDf87kF8CM8pXv9o-7" value="&lt;div&gt;&lt;span&gt;Class A{&lt;/span&gt;&lt;/div&gt;&lt;div&gt;&lt;span&gt;T t;&lt;/span&gt;&lt;/div&gt;&lt;div style=&quot;text-align: left&quot;&gt;&lt;span&gt;&amp;nbsp; &amp;nbsp; &amp;nbsp;}&lt;/span&gt;&lt;/div&gt;&lt;div style=&quot;text-align: left&quot;&gt;&lt;span&gt;&lt;br&gt;&lt;/span&gt;&lt;/div&gt;&lt;div style=&quot;text-align: left&quot;&gt;FieldA/MethodA&lt;/div&gt;" style="rounded=1;whiteSpace=wrap;html=1;" parent="1" vertex="1">
          <mxGeometry x="160" y="480" width="120" height="90" as="geometry"/>
        </mxCell>
        <mxCell id="CbaBmDf87kF8CM8pXv9o-12" value="&lt;span style=&quot;white-space: normal&quot;&gt;Class B{&lt;/span&gt;&lt;br style=&quot;white-space: normal&quot;&gt;&lt;span style=&quot;white-space: normal&quot;&gt;A a;&lt;/span&gt;&lt;br style=&quot;white-space: normal&quot;&gt;&lt;div style=&quot;white-space: normal ; text-align: left&quot;&gt;&amp;nbsp; &amp;nbsp; &amp;nbsp;}&lt;/div&gt;&lt;div style=&quot;white-space: normal ; text-align: left&quot;&gt;&lt;br&gt;&lt;/div&gt;&lt;div style=&quot;white-space: normal ; text-align: left&quot;&gt;FieldB/MethodB&lt;br&gt;&lt;/div&gt;" style="rounded=1;whiteSpace=wrap;html=1;" parent="1" vertex="1">
          <mxGeometry x="405" y="478" width="120" height="90" as="geometry"/>
        </mxCell>
        <mxCell id="CbaBmDf87kF8CM8pXv9o-13" value="&lt;span style=&quot;white-space: normal&quot;&gt;Class C{&lt;/span&gt;&lt;br style=&quot;white-space: normal&quot;&gt;&lt;span style=&quot;white-space: normal&quot;&gt;static&amp;nbsp; B&amp;nbsp; b;&lt;/span&gt;&lt;br style=&quot;white-space: normal&quot;&gt;&lt;div style=&quot;white-space: normal ; text-align: left&quot;&gt;&amp;nbsp; &amp;nbsp; &amp;nbsp; }&lt;/div&gt;&lt;div style=&quot;white-space: normal ; text-align: left&quot;&gt;&lt;br&gt;&lt;/div&gt;&lt;div style=&quot;white-space: normal ; text-align: left&quot;&gt;FieldC/MethodC&lt;br&gt;&lt;/div&gt;" style="rounded=1;whiteSpace=wrap;html=1;" parent="1" vertex="1">
          <mxGeometry x="650" y="480" width="120" height="90" as="geometry"/>
        </mxCell>
        <mxCell id="CbaBmDf87kF8CM8pXv9o-18" style="edgeStyle=orthogonalEdgeStyle;rounded=0;orthogonalLoop=1;jettySize=auto;html=1;" parent="1" edge="1">
          <mxGeometry relative="1" as="geometry">
            <mxPoint x="510" y="600" as="targetPoint"/>
            <mxPoint x="660" y="600" as="sourcePoint"/>
          </mxGeometry>
        </mxCell>
        <mxCell id="CbaBmDf87kF8CM8pXv9o-14" value="field.get(null)" style="text;html=1;strokeColor=none;fillColor=none;align=center;verticalAlign=middle;whiteSpace=wrap;rounded=0;" parent="1" vertex="1">
          <mxGeometry x="690" y="590" width="40" height="20" as="geometry"/>
        </mxCell>
        <mxCell id="CbaBmDf87kF8CM8pXv9o-19" style="edgeStyle=orthogonalEdgeStyle;rounded=0;orthogonalLoop=1;jettySize=auto;html=1;" parent="1" edge="1">
          <mxGeometry relative="1" as="geometry">
            <mxPoint x="260" y="600" as="targetPoint"/>
            <mxPoint x="430" y="600" as="sourcePoint"/>
          </mxGeometry>
        </mxCell>
        <mxCell id="CbaBmDf87kF8CM8pXv9o-15" value="field.get(b)" style="text;html=1;strokeColor=none;fillColor=none;align=center;verticalAlign=middle;whiteSpace=wrap;rounded=0;" parent="1" vertex="1">
          <mxGeometry x="445" y="590" width="40" height="20" as="geometry"/>
        </mxCell>
        <mxCell id="CbaBmDf87kF8CM8pXv9o-16" value="field.get(a)" style="text;html=1;strokeColor=none;fillColor=none;align=center;verticalAlign=middle;whiteSpace=wrap;rounded=0;" parent="1" vertex="1">
          <mxGeometry x="200" y="590" width="40" height="20" as="geometry"/>
        </mxCell>
      </root>
    </mxGraphModel>
  </diagram>
</mxfile>
